<?xml version="1.0" encoding="UTF-8" standalone="no"?>
<svg
   xmlns:osb="http://www.openswatchbook.org/uri/2009/osb"
   xmlns:dc="http://purl.org/dc/elements/1.1/"
   xmlns:cc="http://creativecommons.org/ns#"
   xmlns:rdf="http://www.w3.org/1999/02/22-rdf-syntax-ns#"
   xmlns:svg="http://www.w3.org/2000/svg"
   xmlns="http://www.w3.org/2000/svg"
   xmlns:xlink="http://www.w3.org/1999/xlink"
   xmlns:sodipodi="http://sodipodi.sourceforge.net/DTD/sodipodi-0.dtd"
   xmlns:inkscape="http://www.inkscape.org/namespaces/inkscape"
   height="100px"
   width="100px"
   fill="#000000"
   version="1.1"
   x="0px"
   y="0px"
   viewBox="0 0 32 32"
   style="enable-background:new 0 0 32 32;"
   xml:space="preserve"
   id="svg2"
   inkscape:version="0.91 r13725"
   sodipodi:docname="Icon Solid.svg"><metadata
     id="metadata18"><rdf:RDF><cc:Work
         rdf:about=""><dc:format>image/svg+xml</dc:format><dc:type
           rdf:resource="http://purl.org/dc/dcmitype/StillImage" /><dc:title></dc:title></cc:Work></rdf:RDF></metadata><defs
     id="defs16"><linearGradient
       inkscape:collect="always"
       id="linearGradient4289"><stop
         style="stop-color:#73cf6e;stop-opacity:1;"
         offset="0"
         id="stop4291" /><stop
         style="stop-color:#73cf6e;stop-opacity:0;"
         offset="1"
         id="stop4293" /></linearGradient><linearGradient
       id="linearGradient4251"
       osb:paint="solid"><stop
         style="stop-color:#73cf6e;stop-opacity:1;"
         offset="0"
         id="stop4253" /></linearGradient><linearGradient
       inkscape:collect="always"
       xlink:href="#linearGradient4289"
       id="linearGradient4295"
       x1="18.304"
       y1="16"
       x2="26.625"
       y2="16"
       gradientUnits="userSpaceOnUse" /><linearGradient
       inkscape:collect="always"
       xlink:href="#linearGradient4289"
       id="linearGradient4297"
       x1="13.025"
       y1="22.464"
       x2="18.975"
       y2="22.464"
       gradientUnits="userSpaceOnUse" /><linearGradient
       inkscape:collect="always"
       xlink:href="#linearGradient4289"
       id="linearGradient4299"
       x1="5.375"
       y1="16"
       x2="13.696"
       y2="16"
       gradientUnits="userSpaceOnUse" /><linearGradient
       inkscape:collect="always"
       xlink:href="#linearGradient4289"
       id="linearGradient4301"
       x1="13.025"
       y1="9.5355"
       x2="18.975"
       y2="9.5355"
       gradientUnits="userSpaceOnUse" /></defs><sodipodi:namedview
     pagecolor="#ffffff"
     bordercolor="#666666"
     borderopacity="1"
     objecttolerance="10"
     gridtolerance="10"
     guidetolerance="10"
     inkscape:pageopacity="0"
     inkscape:pageshadow="2"
     inkscape:window-width="640"
     inkscape:window-height="480"
     id="namedview14"
     showgrid="true"
     inkscape:zoom="3.38"
     inkscape:cx="-40.236686"
     inkscape:cy="49.704142"
     inkscape:current-layer="svg2"
     showguides="false"><inkscape:grid
       type="xygrid"
       id="grid4199" /></sodipodi:namedview><rect
     style="fill:#ffffff;fill-opacity:1;stroke:none;stroke-opacity:1"
     id="rect4197"
     width="22.55287"
     height="22.55287"
     x="11.282477"
     y="-11.541833"
     transform="matrix(0.69873957,0.71537614,-0.71537614,0.69873957,0,0)" /><path
     d="M16,0C7.163,0,0,7.163,0,16s7.163,16,16,16s16-7.163,16-16S24.837,0,16,0z M12.175,4.525h7.65v6.553L16,14.903l-3.825-3.825  V4.525z M4.525,19.825v-7.65h6.553L14.904,16l-3.825,3.825H4.525z M19.825,27.475h-7.65v-6.554L16,17.096l3.825,3.825V27.475z   M27.475,19.825h-6.553L17.096,16l3.825-3.825h6.553V19.825z"
     id="path6"
     style="stroke:#3a9f34;stroke-opacity:1;fill:#8cd887;fill-opacity:1" /><g
     id="g4303"
     transform="matrix(0,-1,1,0,0,32)"><polygon
       style="fill:url(#linearGradient4301);fill-opacity:1;stroke:none"
       id="polygon4"
       points="18.975,5.375 13.025,5.375 13.025,10.721 16,13.696 18.975,10.721 " /><polygon
       style="fill:url(#linearGradient4299);fill-opacity:1;stroke:none"
       id="polygon8"
       points="5.375,13.025 5.375,18.975 10.721,18.975 13.696,16 10.721,13.025 " /><polygon
       style="fill:url(#linearGradient4297);fill-opacity:1;stroke:none"
       id="polygon10"
       points="13.025,26.625 18.975,26.625 18.975,21.278 16,18.303 13.025,21.278 " /><polygon
       style="fill:url(#linearGradient4295);fill-opacity:1;stroke:none"
       id="polygon12"
       points="21.279,13.025 18.304,16 21.279,18.975 26.625,18.975 26.625,13.025 " /></g></svg>