<svg height='100px' width='100px'  fill="#000000" xmlns="http://www.w3.org/2000/svg" xmlns:xlink="http://www.w3.org/1999/xlink" version="1.1" x="0px" y="0px" viewBox="0 0 32 32" style="enable-background:new 0 0 32 32;" xml:space="preserve"><polygon points="18.975,10.721 18.975,5.375 13.025,5.375 13.025,10.721 16,13.696 "></polygon><path d="M16,0C7.163,0,0,7.163,0,16s7.163,16,16,16s16-7.163,16-16S24.837,0,16,0z M12.175,4.525h7.65v6.553L16,14.903l-3.825-3.825  V4.525z M4.525,19.825v-7.65h6.553L14.904,16l-3.825,3.825H4.525z M19.825,27.475h-7.65v-6.554L16,17.096l3.825,3.825V27.475z   M27.475,19.825h-6.553L17.096,16l3.825-3.825h6.553V19.825z"></path><polygon points="10.721,13.025 5.375,13.025 5.375,18.975 10.721,18.975 13.696,16 "></polygon><polygon points="13.025,21.278 13.025,26.625 18.975,26.625 18.975,21.278 16,18.303 "></polygon><polygon points="21.279,18.975 26.625,18.975 26.625,13.025 21.279,13.025 18.304,16 "></polygon></svg>